<svg width="48" height="48" viewBox="0 0 48 48" fill="none" xmlns="http://www.w3.org/2000/svg">
  <!-- Background -->
  <rect width="48" height="48" rx="24" fill="#1e2540"/>
  
  <!-- Head -->
  <circle cx="24" cy="15" r="8" fill="#d4a574"/>
  
  <!-- Hair -->
  <path d="M 16 15 Q 16 6 24 6 Q 32 6 32 15" fill="#3d2817"/>
  
  <!-- Face -->
  <circle cx="24" cy="15" r="8" fill="#dbb89d"/>
  
  <!-- Eyes -->
  <circle cx="20" cy="13" r="1.5" fill="#2c1810"/>
  <circle cx="28" cy="13" r="1.5" fill="#2c1810"/>
  
  <!-- Eyebrows -->
  <path d="M 18 11 Q 20 10 22 11" stroke="#2c1810" stroke-width="1" fill="none" stroke-linecap="round"/>
  <path d="M 26 11 Q 28 10 30 11" stroke="#2c1810" stroke-width="1" fill="none" stroke-linecap="round"/>
  
  <!-- Nose -->
  <line x1="24" y1="13" x2="24" y2="17" stroke="#c89872" stroke-width="0.8"/>
  
  <!-- Mouth -->
  <path d="M 21 19 Q 24 21 27 19" stroke="#a87050" stroke-width="1" fill="none" stroke-linecap="round"/>
  
  <!-- Neck and Shirt -->
  <rect x="19" y="23" width="10" height="8" fill="#4a7c9e" rx="2"/>
  
  <!-- Collar -->
  <path d="M 19 23 L 22 20 L 26 20 L 29 23" fill="#ffffff" opacity="0.3"/>
</svg>
